<svg width="14" height="19" viewBox="0 0 14 19" fill="none" xmlns="http://www.w3.org/2000/svg">
<path d="M0.473633 9.27637V7.63281C0.473633 7.41699 0.551107 7.23438 0.706055 7.08496C0.861003 6.93555 1.04362 6.86084 1.25391 6.86084C1.47526 6.86084 1.66341 6.93555 1.81836 7.08496C1.97331 7.23438 2.05078 7.41699 2.05078 7.63281V9.21826C2.05078 10.159 2.24723 10.9836 2.64014 11.6919C3.03857 12.3947 3.59473 12.9398 4.30859 13.3271C5.02246 13.7145 5.84977 13.9082 6.79053 13.9082C7.73682 13.9082 8.56413 13.7145 9.27246 13.3271C9.98079 12.9398 10.5342 12.3947 10.9326 11.6919C11.3311 10.9836 11.5303 10.159 11.5303 9.21826V7.63281C11.5303 7.41699 11.6077 7.23438 11.7627 7.08496C11.9176 6.93555 12.103 6.86084 12.3188 6.86084C12.5347 6.86084 12.7173 6.93555 12.8667 7.08496C13.0216 7.23438 13.0991 7.41699 13.0991 7.63281V9.27637C13.0991 10.4163 12.8639 11.4235 12.3936 12.2979C11.9232 13.1722 11.2702 13.8722 10.4346 14.3979C9.60449 14.9237 8.64437 15.2391 7.5542 15.3442V17.0459H10.6006C10.8164 17.0459 11.0018 17.1206 11.1567 17.27C11.3117 17.425 11.3892 17.6104 11.3892 17.8262C11.3892 18.0365 11.3117 18.2163 11.1567 18.3657C11.0018 18.5207 10.8164 18.5981 10.6006 18.5981H2.98047C2.76465 18.5981 2.57926 18.5207 2.42432 18.3657C2.26937 18.2163 2.19189 18.0365 2.19189 17.8262C2.19189 17.6104 2.26937 17.425 2.42432 17.27C2.57926 17.1206 2.76465 17.0459 2.98047 17.0459H6.02686V15.3442C4.93669 15.2391 3.9738 14.9237 3.13818 14.3979C2.30257 13.8722 1.64958 13.1722 1.1792 12.2979C0.708822 11.4235 0.473633 10.4163 0.473633 9.27637ZM6.79053 12.1899C6.23161 12.1899 5.73079 12.0599 5.28809 11.7998C4.85091 11.5342 4.50505 11.1689 4.25049 10.7041C3.99593 10.2393 3.86865 9.69971 3.86865 9.08545V3.49902C3.86865 2.88477 3.99593 2.34521 4.25049 1.88037C4.50505 1.41553 4.85091 1.05306 5.28809 0.792969C5.73079 0.527344 6.23161 0.394531 6.79053 0.394531C7.34945 0.394531 7.84749 0.527344 8.28467 0.792969C8.72738 1.05306 9.07324 1.41553 9.32227 1.88037C9.57682 2.34521 9.7041 2.88477 9.7041 3.49902V9.08545C9.7041 9.69971 9.57682 10.2393 9.32227 10.7041C9.07324 11.1689 8.72738 11.5342 8.28467 11.7998C7.84749 12.0599 7.34945 12.1899 6.79053 12.1899Z" fill="white" fill-opacity="0.96"/>
</svg>
