<svg width="13" height="12" viewBox="0 0 13 12" fill="none" xmlns="http://www.w3.org/2000/svg">
<path d="M6.06848 2.8215C6.17613 2.94802 6.33388 3.02091 6.5 3.02091C6.66612 3.02091 6.82387 2.94802 6.93152 2.8215C7.57445 2.06597 8.22994 1.69854 8.82711 1.57445C9.42454 1.4503 10.0139 1.55902 10.5463 1.84346C11.6319 2.42344 12.4334 3.71197 12.4334 5.04605C12.4334 5.67503 12.1833 6.38945 11.7323 7.13385C11.2847 7.87261 10.6629 8.60131 9.98065 9.24691C9.2989 9.89202 8.57144 10.4403 7.92447 10.8235C7.24891 11.2236 6.74978 11.3904 6.5 11.3904C6.25022 11.3904 5.7511 11.2236 5.07554 10.8235C4.42857 10.4402 3.70111 9.89197 3.01936 9.24685C2.33709 8.60123 1.71532 7.87251 1.2677 7.13374C0.816667 6.38932 0.566623 5.67489 0.566617 5.04592C0.566604 3.71184 1.36807 2.42335 2.45369 1.8434C2.9861 1.55897 3.57544 1.45027 4.17288 1.57443C4.77005 1.69853 5.42555 2.06597 6.06848 2.8215Z" stroke="#B4B4B4" stroke-width="1.13323" stroke-linejoin="round"/>
</svg>
